# xmcd CD database file
#
# Track frame offsets:
#	150
#	16718
#	39020
#	57563
#	79270
#	100510
#	117928
#	138230
#	157215
#	174738
#	189623
#
# Disc length: 2721 seconds
#
# Revision: 1
# Processed by: cddbd v1.5.2PL0 Copyright (c) Steve Scherf et al.
# Submitted via: CDex 1.51
#
DISCID=880a9f0b
DTITLE=The Staple Singers - Be Altitude - Respect Yourself
DYEAR=1972
DGENRE=Soul
TTITLE0=This World
TTITLE1=Respect Yourself
TTITLE2=Name The Missing Word
TTITLE3=I'll Take You There
TTITLE4=This Old Town (People In This Town) 
TTITLE5=We The People
TTITLE6=Are You Sure
TTITLE7=Who Do You Think You Are? (Jesus Christ The Super Star)
TTITLE8=I'm Just Another Soldier
TTITLE9=Who
TTITLE10=Which Way Did It Go - Roebuck "Pops" Staples
EXTD=YEAR: 1972
EXTT0=
EXTT1=
EXTT2=
EXTT3=
EXTT4=
EXTT5=
EXTT6=
EXTT7=
EXTT8=
EXTT9=
EXTT10=
PLAYORDER=
